<svg xmlns="http://www.w3.org/2000/svg" xmlns:xlink="http://www.w3.org/1999/xlink" id="Layer_1" x="0px" y="0px" viewBox="0 0 220.2 48.9" style="enable-background:new 0 0 220.2 48.9;" xml:space="preserve"><style type="text/css">	.st0{fill:#333E48;}</style><g>	<g>		<path class="st0" d="M55,21v1.6H46V21H55z M51.5,21v11.4h-1.9V21H51.5z"></path>		<path class="st0" d="M58.1,20.4v12h-1.9v-12H58.1z M57.8,27.9l-0.6,0c0-0.6,0.1-1.1,0.2-1.6c0.2-0.5,0.4-0.9,0.7-1.3   s0.6-0.7,1-0.9s0.9-0.3,1.4-0.3c0.4,0,0.8,0.1,1.1,0.2s0.6,0.3,0.9,0.6c0.2,0.3,0.4,0.6,0.6,1c0.1,0.4,0.2,0.9,0.2,1.5v5.4h-1.9   v-5.4c0-0.4-0.1-0.7-0.2-1s-0.3-0.4-0.5-0.5c-0.2-0.1-0.5-0.2-0.8-0.2c-0.3,0-0.6,0.1-0.9,0.2s-0.5,0.3-0.6,0.6s-0.3,0.5-0.4,0.8   S57.8,27.5,57.8,27.9z"></path>		<path class="st0" d="M68.8,32.5c-0.6,0-1.2-0.1-1.7-0.3c-0.5-0.2-0.9-0.5-1.3-0.9s-0.6-0.8-0.8-1.3s-0.3-1-0.3-1.6v-0.3   c0-0.7,0.1-1.3,0.3-1.8c0.2-0.5,0.5-1,0.8-1.4s0.8-0.7,1.2-0.9s1-0.3,1.5-0.3c0.6,0,1.1,0.1,1.6,0.3s0.8,0.5,1.1,0.9   c0.3,0.4,0.5,0.8,0.7,1.3s0.2,1.1,0.2,1.7v0.8h-6.5v-1.4h4.7v-0.1c0-0.3-0.1-0.7-0.2-1c-0.1-0.3-0.3-0.5-0.6-0.7s-0.6-0.3-1-0.3   c-0.3,0-0.6,0.1-0.8,0.2s-0.4,0.3-0.6,0.6c-0.2,0.2-0.3,0.6-0.4,0.9s-0.1,0.7-0.1,1.2v0.3c0,0.4,0.1,0.7,0.2,1s0.2,0.6,0.4,0.8   c0.2,0.2,0.4,0.4,0.7,0.6s0.6,0.2,1,0.2c0.5,0,0.9-0.1,1.2-0.3c0.4-0.2,0.7-0.4,0.9-0.8l1,1c-0.2,0.3-0.4,0.5-0.7,0.8   c-0.3,0.2-0.6,0.4-1.1,0.6C69.8,32.5,69.3,32.5,68.8,32.5z"></path>		<path class="st0" d="M79.6,21v11.4h-2V21H79.6z M84.9,21v1.6h-5.8V21H84.9z M84.2,26v1.6h-5.1V26H84.2z"></path>		<path class="st0" d="M88.4,21v11.4h-2V21H88.4z"></path>		<path class="st0" d="M91.9,21l3,9.3l0.4,2.1h-1.5L89.8,21H91.9z M94.7,30.3l3-9.3h2.2l-4.1,11.4h-1.5L94.7,30.3z"></path>		<path class="st0" d="M103,21v11.4h-2V21H103z M108.5,21v1.6h-6V21H108.5z M107.7,25.8v1.5h-5.2v-1.5H107.7z M108.5,30.8v1.6h-6   v-1.6H108.5z"></path>		<path class="st0" d="M116,29.5c0-0.2,0-0.4-0.1-0.6s-0.2-0.3-0.4-0.5c-0.2-0.2-0.4-0.3-0.7-0.4s-0.7-0.3-1.2-0.4   c-0.5-0.2-1-0.4-1.5-0.6c-0.5-0.2-0.9-0.4-1.2-0.7c-0.3-0.3-0.6-0.6-0.8-0.9s-0.3-0.8-0.3-1.2c0-0.5,0.1-0.9,0.3-1.3   s0.5-0.7,0.8-1c0.4-0.3,0.8-0.5,1.3-0.6c0.5-0.2,1-0.2,1.6-0.2c0.8,0,1.6,0.2,2.2,0.5c0.6,0.3,1.1,0.7,1.4,1.3   c0.3,0.5,0.5,1.1,0.5,1.7H116c0-0.4-0.1-0.7-0.2-1c-0.2-0.3-0.4-0.5-0.7-0.7s-0.7-0.2-1.2-0.2c-0.5,0-0.8,0.1-1.2,0.2   c-0.3,0.1-0.5,0.3-0.7,0.6c-0.2,0.2-0.2,0.5-0.2,0.8c0,0.2,0,0.4,0.1,0.6c0.1,0.2,0.2,0.3,0.5,0.5s0.5,0.3,0.8,0.4   c0.3,0.1,0.7,0.3,1.1,0.4c0.6,0.2,1.2,0.4,1.6,0.6s0.9,0.5,1.2,0.8s0.5,0.6,0.7,1s0.2,0.8,0.2,1.2c0,0.5-0.1,0.9-0.3,1.3   c-0.2,0.4-0.5,0.7-0.8,1c-0.4,0.3-0.8,0.5-1.3,0.6c-0.5,0.1-1.1,0.2-1.7,0.2c-0.5,0-1.1-0.1-1.6-0.2c-0.5-0.1-1-0.4-1.4-0.7   c-0.4-0.3-0.8-0.7-1-1.1c-0.3-0.5-0.4-1-0.4-1.6h2c0,0.4,0.1,0.7,0.2,0.9c0.1,0.3,0.3,0.5,0.5,0.6c0.2,0.2,0.5,0.3,0.8,0.4   s0.6,0.1,1,0.1c0.5,0,0.8-0.1,1.2-0.2c0.3-0.1,0.5-0.3,0.7-0.5S116,29.8,116,29.5z"></path>		<path class="st0" d="M127.9,21v1.6h-9.1V21H127.9z M124.3,21v11.4h-1.9V21H124.3z"></path>		<path class="st0" d="M132.7,22.5l-3.4,9.9h-2.1l4.3-11.4h1.3L132.7,22.5z M135.4,28.2v1.6h-6.2v-1.6H135.4z M135.6,32.4l-3.4-9.9   L132,21h1.3l4.3,11.4H135.6z"></path>		<path class="st0" d="M138.9,21h4c0.9,0,1.6,0.1,2.2,0.4s1.1,0.6,1.4,1.2c0.3,0.5,0.5,1.1,0.5,1.9c0,0.6-0.1,1.1-0.3,1.5   c-0.2,0.4-0.5,0.8-0.9,1.1c-0.4,0.3-0.8,0.5-1.4,0.7l-0.6,0.3h-3.6l0-1.6h2.7c0.5,0,0.9-0.1,1.2-0.2s0.5-0.4,0.7-0.7   c0.2-0.3,0.2-0.6,0.2-1c0-0.4-0.1-0.7-0.2-1c-0.2-0.3-0.4-0.5-0.7-0.7c-0.3-0.2-0.7-0.2-1.2-0.2h-2.1v9.8h-2V21z M145.4,32.4   l-2.7-5.1l2.1,0l2.7,5v0.1H145.4z"></path>		<path class="st0" d="M152.7,21h1.7l0.3,7.6v3.8h-2V21z M153.5,21h1.8l3.3,8.8l3.3-8.8h1.8l-4.3,11.4h-1.4L153.5,21z M162.7,21h1.7   v11.4h-2v-3.8L162.7,21z"></path>		<path class="st0" d="M170.1,32.5c-0.6,0-1.2-0.1-1.7-0.3c-0.5-0.2-0.9-0.5-1.3-0.9s-0.6-0.8-0.8-1.3s-0.3-1-0.3-1.6v-0.3   c0-0.7,0.1-1.3,0.3-1.8c0.2-0.5,0.5-1,0.8-1.4s0.8-0.7,1.2-0.9s1-0.3,1.5-0.3c0.6,0,1.1,0.1,1.6,0.3s0.8,0.5,1.1,0.9   c0.3,0.4,0.5,0.8,0.7,1.3s0.2,1.1,0.2,1.7v0.8H167v-1.4h4.7v-0.1c0-0.3-0.1-0.7-0.2-1c-0.1-0.3-0.3-0.5-0.6-0.7s-0.6-0.3-1-0.3   c-0.3,0-0.6,0.1-0.8,0.2s-0.4,0.3-0.6,0.6c-0.2,0.2-0.3,0.6-0.4,0.9s-0.1,0.7-0.1,1.2v0.3c0,0.4,0.1,0.7,0.2,1s0.3,0.6,0.4,0.8   c0.2,0.2,0.4,0.4,0.7,0.6s0.6,0.2,1,0.2c0.5,0,0.9-0.1,1.2-0.3c0.4-0.2,0.7-0.4,0.9-0.8l1,1c-0.2,0.3-0.4,0.5-0.7,0.8   c-0.3,0.2-0.6,0.4-1.1,0.6C171.2,32.5,170.7,32.5,170.1,32.5z"></path>		<path class="st0" d="M178.8,23.9v1.4H174v-1.4H178.8z M175.4,21.9h1.9v8.2c0,0.3,0,0.5,0.1,0.6c0.1,0.1,0.2,0.2,0.3,0.3   c0.1,0,0.3,0.1,0.5,0.1c0.1,0,0.3,0,0.4,0c0.1,0,0.2,0,0.3,0l0,1.4c-0.2,0-0.3,0.1-0.5,0.1c-0.2,0-0.4,0.1-0.7,0.1   c-0.4,0-0.8-0.1-1.1-0.2c-0.3-0.2-0.6-0.4-0.8-0.8s-0.3-0.8-0.3-1.4V21.9z"></path>		<path class="st0" d="M182,20.4v12h-1.9v-12H182z M181.7,27.9l-0.6,0c0-0.6,0.1-1.1,0.2-1.6c0.2-0.5,0.4-0.9,0.7-1.3s0.6-0.7,1-0.9   s0.9-0.3,1.4-0.3c0.4,0,0.8,0.1,1.1,0.2s0.6,0.3,0.9,0.6c0.2,0.3,0.4,0.6,0.6,1c0.1,0.4,0.2,0.9,0.2,1.5v5.4h-1.9v-5.4   c0-0.4-0.1-0.7-0.2-1s-0.3-0.4-0.5-0.5c-0.2-0.1-0.5-0.2-0.8-0.2c-0.3,0-0.6,0.1-0.9,0.2s-0.5,0.3-0.6,0.6s-0.3,0.5-0.4,0.8   S181.7,27.5,181.7,27.9z"></path>		<path class="st0" d="M188.6,28.3v-0.2c0-0.6,0.1-1.2,0.3-1.7c0.2-0.5,0.4-1,0.8-1.4s0.7-0.7,1.2-0.9c0.5-0.2,1-0.3,1.7-0.3   c0.6,0,1.2,0.1,1.7,0.3c0.5,0.2,0.9,0.5,1.2,0.9c0.3,0.4,0.6,0.8,0.8,1.4c0.2,0.5,0.3,1.1,0.3,1.7v0.2c0,0.6-0.1,1.2-0.3,1.7   c-0.2,0.5-0.4,1-0.8,1.4c-0.3,0.4-0.8,0.7-1.2,0.9s-1,0.3-1.6,0.3c-0.6,0-1.2-0.1-1.7-0.3c-0.5-0.2-0.9-0.5-1.2-0.9   c-0.3-0.4-0.6-0.8-0.8-1.4C188.7,29.4,188.6,28.9,188.6,28.3z M190.5,28.1v0.2c0,0.4,0,0.7,0.1,1.1s0.2,0.6,0.4,0.9   c0.2,0.3,0.4,0.5,0.6,0.6c0.3,0.1,0.6,0.2,0.9,0.2c0.3,0,0.7-0.1,0.9-0.2s0.5-0.3,0.6-0.6c0.2-0.3,0.3-0.6,0.4-0.9   c0.1-0.3,0.1-0.7,0.1-1.1v-0.2c0-0.4,0-0.7-0.1-1.1c-0.1-0.3-0.2-0.6-0.4-0.9c-0.2-0.3-0.4-0.5-0.6-0.6s-0.6-0.2-0.9-0.2   c-0.4,0-0.7,0.1-0.9,0.2s-0.5,0.4-0.6,0.6c-0.2,0.3-0.3,0.6-0.4,0.9S190.5,27.7,190.5,28.1z"></path>		<path class="st0" d="M197.6,28.3v-0.2c0-0.6,0.1-1.2,0.2-1.8c0.2-0.5,0.4-1,0.7-1.4c0.3-0.4,0.6-0.7,1-0.9   c0.4-0.2,0.9-0.3,1.4-0.3c0.5,0,1,0.1,1.3,0.3c0.4,0.2,0.7,0.5,1,0.8c0.3,0.4,0.5,0.8,0.6,1.3c0.2,0.5,0.3,1.1,0.3,1.7v0.5   c-0.1,0.6-0.2,1.2-0.3,1.7c-0.2,0.5-0.4,0.9-0.6,1.3c-0.3,0.4-0.6,0.6-1,0.8c-0.4,0.2-0.8,0.3-1.4,0.3c-0.5,0-1-0.1-1.4-0.3   c-0.4-0.2-0.8-0.5-1-0.9c-0.3-0.4-0.5-0.8-0.7-1.4C197.7,29.4,197.6,28.9,197.6,28.3z M199.5,28.1v0.2c0,0.4,0,0.7,0.1,1.1   s0.2,0.6,0.3,0.9c0.2,0.3,0.3,0.5,0.6,0.6s0.5,0.2,0.9,0.2c0.4,0,0.8-0.1,1.1-0.3c0.3-0.2,0.5-0.4,0.7-0.8   c0.2-0.3,0.3-0.7,0.3-1.1v-1.4c0-0.3-0.1-0.6-0.2-0.9c-0.1-0.3-0.2-0.5-0.4-0.7c-0.2-0.2-0.4-0.4-0.6-0.5   c-0.2-0.1-0.5-0.2-0.8-0.2c-0.3,0-0.6,0.1-0.9,0.2c-0.2,0.1-0.4,0.3-0.6,0.6c-0.2,0.3-0.3,0.6-0.3,0.9   C199.6,27.3,199.5,27.7,199.5,28.1z M203.1,30.6V20.4h1.9v12h-1.7L203.1,30.6z"></path>	</g></g><g>	<path class="st0" d="M39.3,19.7l-11.1,0l0,0h-4.4l-0.2,3.5c0.5-0.7,1.3-1.1,2.4-1.1c1,0,1.8,0.3,2.3,0.9c0.5,0.6,0.8,1.4,0.8,2.5  l0,3.3c0,1.2-0.3,2.1-1,2.7c-0.2,0.2-0.5,0.4-0.9,0.5l6.6,4.8l-3.4-10.5L39.3,19.7z"></path>	<polygon class="st0" points="27.6,17.6 24.8,9.2 22.1,17.6  "></polygon>	<path class="st0" d="M22.6,31.9c-0.2-0.1-0.4-0.3-0.6-0.4c-0.7-0.6-1-1.5-1-2.7l0-1.2h2.6l0,1.4c0,0.5,0.1,0.9,0.4,1.1  c0.2,0.2,0.5,0.3,0.9,0.3l0.1,0l0.1,0c0,0,0,0,0.1,0c0.4,0,0.8-0.1,1-0.3c0.3-0.2,0.4-0.6,0.4-1.1l0-3.2c0-0.5-0.1-0.9-0.4-1.1  c-0.3-0.2-0.6-0.3-1-0.3s-0.8,0.1-1,0.3c-0.3,0.2-0.4,0.6-0.4,1.1l0,0.4h-2.6l0.4-6.4H10.3l9,6.5l-3.4,10.5L22.6,31.9z"></path></g></svg>