<svg xmlns="http://www.w3.org/2000/svg" id="Layer_1" data-name="Layer 1" viewBox="0 0 80 80"><defs><style>      .cls-1 {        fill: #36b0c9;      }      .cls-1, .cls-2 {        stroke-width: 0px;      }      .cls-2 {        fill: #333e48;      }    </style></defs><path class="cls-1" d="M39.33,6.24c19.3,0,35,15.7,35,35s-15.7,35-35,35S4.33,60.53,4.33,41.24,20.03,6.24,39.33,6.24M39.33,5.24C19.45,5.24,3.33,21.35,3.33,41.24s16.12,36,36,36,36-16.12,36-36S59.21,5.24,39.33,5.24h0Z"></path><polygon class="cls-2" points="56.18 32.97 46.75 31.73 45.01 21.81 34.4 19.99 34.19 21.2 43.03 23.55 44.39 32 35.53 33.65 26.8 26.48 19.69 33.58 20.38 34.24 27.07 29.46 35.16 35.06 34.93 42.74 25.08 48.77 25.63 49.87 35.45 44.94 41.78 48.77 40.64 56.48 31.05 59.9 31.37 61.08 40.02 58.73 45.28 63.83 46.29 63.14 42.4 57.49 44.44 47.32 36.19 43.82 37.09 35.73 44.62 33.41 44.62 33.43 54.33 34.48 56.55 41.34 57.76 41.11 56.18 32.97"></polygon><circle class="cls-2" cx="51.12" cy="42.94" r="1.48"></circle><circle class="cls-2" cx="50.11" cy="51.94" r="1.48"></circle><circle class="cls-2" cx="57.89" cy="51.39" r="1.48"></circle></svg>