<?xml version="1.0" encoding="UTF-8"?>
<svg id="Layer_1" data-name="Layer 1" xmlns="http://www.w3.org/2000/svg" viewBox="0 0 80 80">
  <defs>
    <style>
      .cls-1 {
        fill: #36b0c9;
      }

      .cls-1, .cls-2 {
        stroke-width: 0px;
      }

      .cls-2 {
        fill: #333e48;
      }
    </style>
  </defs>
  <polygon class="cls-2" points="27.3 58.68 28.91 65.61 30.12 65.44 29.2 58.65 35.6 50.49 29.83 43.66 28.57 35.62 35.22 31.41 35.23 31.42 46.37 29.22 46.26 27.93 36.83 29.22 32.55 20.1 21.83 21.15 21.95 22.37 31.09 22.3 34.63 30.1 26.51 34.02 16.2 29.41 11.22 38.13 12.06 38.58 17.26 32.21 26.53 35.48 28.33 42.95 20.41 51.36 21.23 52.28 28.98 45.32 32.83 50.6 27.3 58.68"/>
  <path class="cls-1" d="M39.6,6.24c19.3,0,35,15.7,35,35s-15.7,35-35,35S4.6,60.53,4.6,41.24,20.3,6.24,39.6,6.24M39.6,5.24C19.72,5.24,3.6,21.35,3.6,41.24s16.12,36,36,36,36-16.12,36-36S59.48,5.24,39.6,5.24h0Z"/>
  <path class="cls-2" d="M62.3,45.69c-5.11-1.03-14.44-3.01-18.65-3.85,4.19-.96,13.8-3.3,18.65-5.39l-.41-1.27c-3.69,1.59-10.71,2.82-15.61,3.55,4.22-3.34,9.59-7.49,14.04-11.7l-.96-1.08c-7,6.62-23.7,16.56-23.8,16.61h.03c-.09.24,16.01,6.7,24.7,12.03l.59-1.26c-4.88-2.99-10.43-6.23-14.35-8.45,4.72.51,11.56,1.33,15.49,2.12l.27-1.33ZM35.66,42.57h.24s-.2,0-.2,0c-.02,0-.02,0-.04,0Z"/>
</svg>