<svg xmlns="http://www.w3.org/2000/svg" xmlns:xlink="http://www.w3.org/1999/xlink" id="Layer_1" x="0px" y="0px" viewBox="0 0 296.11 75.92" style="enable-background:new 0 0 296.11 75.92;" xml:space="preserve"><style type="text/css">	.st0{fill:#36B0C9;}	.st1{fill:#333E48;}</style><g>	<g>		<path class="st0" d="M88.98,17.95c0.05-0.09,0.08-0.18,0.09-0.24c0.09-0.34,0.01-0.74-0.2-1c-0.13-0.17-0.38-0.38-0.81-0.38   c-1.02,0-2.51,1.13-4.4,3.37v0c-4.07,4.81-7.6,10.68-11.34,16.9l-0.76,1.27c-0.38-0.71-1.17-1.49-2.59-1.49   c-0.33,0-0.77,0.02-1.29,0.17c-2.1,0.53-3.89,2.1-5.26,3.71c-0.06-0.01-0.13-0.02-0.19-0.02c-0.24,0-0.46,0.08-0.62,0.21   l-0.08,0.05C52.91,46,24.01,63.96,13.82,63.96c-1.34,0-2.29-0.32-2.82-0.95c-0.51-0.61-0.66-1.54-0.45-2.76l0.11-0.44   c0.86-3.44,5.32-8.92,11.63-14.3c5.94-5.07,13.04-9.84,18.1-12.14c1.89-0.84,3.27-1.27,4.21-1.33c1.07-0.07,2.19-0.27,2.42-1.2   c0.18-0.93-0.86-1.18-1.87-1.41l-0.17-0.04c-1.44-0.38-3.63-0.97-5.4-2.01c-2.28-1.28-3.14-2.88-2.64-4.89   c0.23-0.93,0.73-1.9,1.49-2.89c4.84-6.43,11.65-11.07,16.42-13.26c1.81-0.83,3.44-1.37,4.73-1.55c0.21-0.03,0.43-0.06,0.64-0.06   c0.59,0,0.99,0.16,1.24,0.47c0.4,0.51,0.43,1.46,0.08,2.82c-0.9,3.6-4.14,8.86-5.22,10.38c-0.69,0.95-2,2.36-4.31,3.69   c-0.16,0.09-0.24,0.14-0.27,0.27l-0.08,0.32c-0.23,0.91-0.17,1.6,0.17,2.03c0.18,0.23,0.54,0.51,1.21,0.51   c1.08,0,2.51-0.77,3.18-1.51c0.94-1.15,5.64-8.93,7.08-14.68c0.63-2.53,0.55-4.27-0.26-5.31c-0.53-0.68-1.37-1.03-2.48-1.03   c-0.27,0-0.6,0-0.95,0.07c-1.48,0.23-3.33,0.84-5.35,1.76c-5.04,2.31-12.28,7.21-17.45,14.06c-1,1.33-1.66,2.64-1.97,3.87   c-0.68,2.71,0.49,4.98,3.48,6.74c1,0.56,2.21,1.07,3.61,1.51c-0.68,0.24-1.39,0.53-2.14,0.86c-5.34,2.46-12.68,7.39-18.71,12.55   C17.1,47.49,10.22,53.96,8.9,59.24c-0.02,0.09-0.04,0.18-0.05,0.28c-0.01,0.08-0.02,0.16-0.05,0.25c-0.33,1.81-0.1,3.2,0.68,4.13   c0.79,0.94,2.14,1.42,4.03,1.42c9.53,0,31.27-12.28,42.95-18.88c1.14-0.64,2.15-1.22,3.05-1.71c-0.29,0.61-0.48,1.08-0.58,1.5   c-0.25,0.99-0.17,1.79,0.23,2.29c0.48,0.61,1.4,0.69,2.45,0.23c1.58-0.67,4.57-3.18,6.49-4.87c-2.42,4.02-6.39,11.7-7.7,16.95   c-0.1,0.39-0.19,0.77-0.26,1.17c-0.02,0.12-0.42,2.95,0.7,4.58c0.06,0.09,0.57,0.84,1.29,0.84c0.19,0,0.37-0.05,0.51-0.13   c0.33-0.16,0.53-0.39,0.6-0.68c0.06-0.25,0-0.52-0.16-0.73c-0.17-0.22-0.45-0.36-0.73-0.36c-0.13,0-0.45-0.09-0.74-0.42   c-0.31-0.36-0.64-1.07-0.45-2.41c0.03-0.23,0.1-0.5,0.19-0.88c0.73-2.93,3.36-9.66,6.91-15.45l3.82-6.2   c0.62-0.63,15.24-15.55,16.86-22.03L88.98,17.95z M87.07,18.43c-0.22,0.5-0.82,1.37-1.31,2.09c-0.19,0.27-0.37,0.54-0.53,0.79   c-0.77,1.14-4.78,6.41-8.35,10.88c2.02-3.42,5.15-8.5,7.42-11.07C85.27,19.99,86.49,18.77,87.07,18.43z M69.92,39.59   c-0.38,0.36-2.1,1.96-6.37,5.79c-1.8,1.62-2.33,1.75-2.42,1.79c0,0-0.03-0.08,0.03-0.31c0.21-0.86,1.24-2.58,2.23-3.76   c1.92-2.33,4.28-4.17,5.58-4.37c0.06,0,0.13-0.01,0.2-0.02c0.03-0.01,0.07-0.01,0.1-0.01c0.22,0,0.37,0.06,0.48,0.18   C69.91,39.07,69.93,39.39,69.92,39.59z"></path>		<path class="st0" d="M176.51,25.69l-0.04-0.1l-0.09-0.05c-0.13-0.07-0.29-0.07-0.59-0.07c-2.27,0-12.64,0.85-19.5,1.41   c-2.05,0.17-3.77,0.31-4.84,0.39c3.28-3.36,10.9-11.33,11.79-14.86c0.3-1.21-0.19-1.7-0.66-1.89l-0.18-0.02   c-2.43,0-9.22,8.74-14.81,16.97c-8.15,0.64-13.28,0.78-16.16,0.78c-1.72,0-2.94-0.03-3.79-0.1c-0.01-0.23-0.1-0.39-0.18-0.5   c-0.31-0.4-0.9-0.45-1.13-0.45h-0.19c-0.47,0-1.4,0.17-1.56,0.81c-0.04,0.14,0,0.27,0.01,0.32c0.07,0.49,0.62,0.9,6.54,0.9   c2.45,0,5.31-0.06,8.34-0.12c2.39-0.05,4.85-0.1,7.1-0.12c-2.27,3.41-4.67,7.24-6.9,11.11c-0.21,0.06-0.47,0.21-0.73,0.56   c-1.45,1.39-9.93,5.53-13.75,5.53c-0.8,0-1.34-0.17-1.61-0.5c-0.23-0.29-0.26-0.74-0.11-1.34c0.16-0.62,0.51-1.39,1.06-2.27   c0.87-1.35,1.42-2.46,1.63-3.29c0.14-0.55,0.11-0.95-0.07-1.23c-0.11-0.17-0.27-0.28-0.47-0.32c-0.11-0.05-0.23-0.08-0.34-0.08   c-0.21,0-0.82,0-3,1.48c-0.36-0.35-0.98-0.69-2.03-0.69c-0.61,0-1.22,0.09-1.85,0.26c-2.07,0.58-4.01,2.09-5.43,3.61   c-4.86,2.99-7.9,4.49-10.25,5.07c-1.13,0.28-2.07,0.43-2.72,0.43c-0.42,0-0.61-0.06-0.73-0.11c-0.45-0.14-0.7-0.44-0.78-0.92   c-0.04-0.2-0.02-0.42,0.06-0.75c0.6-2.4,4.65-5.93,6.84-7.27c-0.27,0.28-0.58,0.58-0.77,0.76c-0.21,0.2-0.39,0.37-0.48,0.47   l-0.07,0.13c-0.07,0.28-0.01,0.54,0.16,0.77c0.35,0.45,1.07,0.61,1.58,0.61c0.4,0,0.8-0.1,1.08-0.29   c0.11-0.09,1.24-1.55,1.56-2.82c0.22-0.87,0-1.55-0.68-1.93c-0.21-0.07-0.46-0.14-0.73-0.14h-0.32c-2.57,0-5.57,2.13-7.6,4.68   c-0.1,0.04-0.21,0.08-0.34,0.15c-1,0.7-8.56,5.63-10.77,5.63c-0.18,0-0.29-0.03-0.32-0.05c-0.23-0.14-0.55-0.65-0.08-2.52   c0.3-1.2,0.88-2.76,1.65-4.4c0.04-0.09,0.06-0.14,0.06-0.14c0.13-0.54,0.03-1.09-0.28-1.48c-0.23-0.29-0.55-0.46-0.88-0.46   c-0.51,0-0.97,0.41-1.25,1.11c-0.5,1.65-7.09,8.54-9.02,9.06c-0.04,0-0.1,0.01-0.18,0.03c-0.07,0-0.11-0.01-0.13-0.04   c-0.05-0.06-0.08-0.27,0.01-0.64c0.46-1.85,3-5.55,6.16-9.02l0.05-0.07c0.08-0.16,0.11-0.28,0.13-0.38   c0.11-0.45,0.03-0.89-0.24-1.23c-0.29-0.37-0.76-0.59-1.26-0.59c-0.65,0-1.25,0.36-1.61,0.97l-0.07,0.1   c-1.32,1.79-4.48,6.29-5.29,9.53c-0.43,1.73-0.15,2.91,0.83,3.5c0.28,0.18,0.63,0.27,1.03,0.27c2.67,0,6.73-4.22,8.51-6.22   c-0.34,1.98-0.03,3.28,0.92,3.87c0.28,0.18,0.65,0.27,1.13,0.27c2.07,0,6.33-2.1,9.22-3.77c-0.07,0.21-0.14,0.42-0.19,0.63   c-0.17,0.67-0.21,1.31-0.12,1.96c0.16,1.04,0.78,1.78,1.78,2.14c0.42,0.16,0.93,0.24,1.58,0.24c0.77,0,1.62-0.12,2.5-0.36   c2.12-0.52,4.79-1.67,7.96-3.39c-0.01,0.02-0.02,0.05-0.03,0.07c-0.08,0.18-0.13,0.35-0.17,0.53c-0.14,0.56-0.11,1,0.1,1.38   c0.23,0.37,0.52,0.58,0.97,0.66l0.15,0.03c1.4,0,4.52-2.3,8.14-5.09l0.56-0.42c0.19-0.14,0.34-0.26,0.52-0.4l0.03,0.02   c0.49,0.28,1.12,0.11,1.66-0.33c-0.38,0.78-0.64,1.47-0.8,2.1c-0.29,1.14-0.19,2.04,0.3,2.66c0.5,0.64,1.39,0.96,2.65,0.96   c3.68,0,10.1-2.77,13.36-4.43c-3.28,5.94-6,11.74-7.07,16.03c-0.93,3.72-0.55,6.02,1.12,6.83c0.13,0.07,0.26,0.07,0.34,0.07   c0.52,0,1.01-0.51,1.12-0.97c0.06-0.24,0.02-0.46-0.1-0.63c-0.09-0.12-0.26-0.27-0.58-0.3c-0.48-0.04-0.82-0.22-1.05-0.54   c-0.45-0.63-0.46-1.86-0.04-3.55c2.2-8.78,14.8-27.4,18.32-31.13c6.63-0.53,19.07-1.08,21.76-1.2c-0.07,0.31,0,0.61,0.17,0.84   c0.27,0.35,0.83,0.42,1.23,0.23c0.31-0.09,3.02-0.94,3.34-2.22C176.64,26.17,176.61,25.95,176.51,25.69z M119.36,40.76   c-2.15,2.09-3.78,3.19-4.52,3.54C115.6,43.3,118.1,40.97,119.36,40.76z"></path>		<path class="st0" d="M163.43,40.67c-0.1,0.07-10.31,6.54-14.57,6.54c-0.79,0-1.27-0.23-1.47-0.72c-0.17-0.42-0.15-1.15,0.06-2.01   c0.03-0.11,0.06-0.21,0.1-0.32c0.02-0.05,0.03-0.1,0.05-0.15c2.19-0.8,5.77-2.45,6.37-4.87l0,0c0.02-0.08,0.03-0.15,0.03-0.22   c0-0.04,0.01-0.08,0.03-0.16c0.1-0.71-0.15-1.27-0.68-1.52c-0.49-0.28-1.32-0.22-2.26,0.24c-0.72,0.35-1.51,0.9-2.22,1.54   c-0.96,0.87-2.65,2.67-3.19,4.83c-0.27,1.09-0.22,2.08,0.15,2.94c0.45,1.12,1.49,1.69,3.12,1.69c4.62,0,12.91-4.7,15.34-6.14   l0.12-0.07c0.26-0.17,0.44-0.4,0.49-0.63c0.07-0.29,0.01-0.59-0.17-0.81C164.45,40.46,163.91,40.37,163.43,40.67z"></path>	</g>	<g>		<path class="st1" d="M186.36,64.73l-0.28-4.21c-0.05-0.41-0.28-0.49-0.7-0.23l-0.18-0.41c0.22-0.27,0.53-0.48,0.92-0.64   c0.16-0.06,0.33-0.09,0.51-0.09c0.47,0,0.74,0.18,0.82,0.55c0.03,0.12,0.04,0.25,0.05,0.4l0.01,4.74l-0.02,1.28l0.62-1.16   l2.86-5.75h1.2l0.03,6.91l0.85-1.16c0.71-0.98,1.24-2.04,1.6-3.19c0.15-0.49,0.22-0.82,0.2-1c-0.02-0.18-0.04-0.31-0.05-0.4   l-0.06-0.24c-0.02-0.08-0.02-0.2-0.01-0.37c0.01-0.17,0.08-0.31,0.21-0.43c0.13-0.12,0.32-0.18,0.57-0.18   c0.51,0,0.73,0.48,0.66,1.45c-0.05,0.69-0.47,1.68-1.25,2.96c-0.15,0.25-0.31,0.5-0.47,0.73l-2.05,2.94l-1.3,0.08l-0.07-2.58   l-0.03-2.64l0.02-0.97l-0.41,0.98l-1.56,2.86l-1.31,2.28l-1.17,0.08L186.36,64.73z"></path>		<path class="st1" d="M198.53,67.32c-0.57,0-0.84-0.26-0.8-0.79c0.02-0.31,0.15-0.94,0.37-1.89l0.95-4.23l-1-0.35l0.17-0.56   l2.11-0.35l0.33,0.17l-1.44,6.58c-0.02,0.09-0.03,0.16-0.04,0.23c-0.01,0.2,0.04,0.3,0.15,0.3c0.17,0,0.43-0.15,0.77-0.46   l0.19,0.37c-0.26,0.36-0.64,0.65-1.16,0.88C198.93,67.28,198.73,67.32,198.53,67.32z M200.27,57.6c-0.12,0-0.23-0.02-0.33-0.07   c-0.31-0.14-0.45-0.38-0.42-0.73c0.02-0.28,0.15-0.52,0.39-0.73c0.23-0.2,0.43-0.3,0.61-0.3c0.18,0,0.32,0.02,0.42,0.06   c0.31,0.13,0.46,0.37,0.43,0.7c-0.02,0.28-0.15,0.53-0.38,0.75C200.77,57.49,200.53,57.6,200.27,57.6z"></path>		<path class="st1" d="M203.7,67.32c-0.84,0-1.23-0.41-1.17-1.24l0.01-0.08c0.01-0.14,0.06-0.42,0.14-0.84l1-5h-0.83l0.18-0.6   l0.87-0.32c0.29-0.31,0.64-0.93,1.05-1.84h0.66l-0.37,1.8h1.81l-0.21,0.96h-1.79l-0.89,4.32c-0.12,0.56-0.19,0.93-0.2,1.13   c-0.01,0.2-0.02,0.34-0.01,0.42c0.01,0.08,0.03,0.15,0.07,0.19c0.07,0.09,0.18,0.13,0.35,0.13c0.16,0,0.31-0.02,0.44-0.06   c0.13-0.04,0.25-0.09,0.38-0.15c0.27-0.12,0.49-0.25,0.66-0.37l0.08,0.54c-0.34,0.38-0.88,0.68-1.62,0.9   C204.1,67.29,203.9,67.32,203.7,67.32z"></path>		<path class="st1" d="M213.05,67.32c-0.6,0-0.86-0.3-0.78-0.9c0.05-0.4,0.14-0.83,0.26-1.3c0.12-0.47,0.2-0.8,0.25-1   c0.05-0.2,0.11-0.42,0.17-0.65c0.06-0.24,0.12-0.48,0.18-0.73c0.13-0.56,0.21-1,0.24-1.32c0.02-0.32,0.02-0.55-0.01-0.69   s-0.08-0.25-0.15-0.32c-0.1-0.11-0.26-0.16-0.48-0.16c-0.22,0-0.44,0.04-0.65,0.13c-0.21,0.09-0.43,0.21-0.65,0.37   c-0.47,0.34-0.9,0.76-1.27,1.26l-1.07,5.18h-1.34l2.09-10.24l-0.79-0.3l0.16-0.57l1.86-0.29l0.35,0.19l-1.02,4.92   c0.67-0.81,1.39-1.35,2.16-1.61c0.27-0.09,0.53-0.13,0.79-0.13c0.26,0,0.48,0.04,0.66,0.11c0.19,0.07,0.34,0.19,0.46,0.36   c0.26,0.34,0.36,0.88,0.31,1.62c-0.03,0.41-0.12,0.87-0.25,1.4l-0.28,1.06l-0.26,1.1c-0.18,0.78-0.26,1.25-0.24,1.4   c0.02,0.15,0.07,0.23,0.13,0.23c0.16,0,0.42-0.13,0.77-0.39l0.19,0.36c-0.11,0.16-0.28,0.32-0.51,0.47   C213.83,67.17,213.42,67.32,213.05,67.32z"></path>		<path class="st1" d="M220.01,66.59l0.95-0.19l1.83-8.93l-1-0.16l0.17-0.7h2.34l2.67,7.68l0.37,1.61l1.62-8.44l-1.03-0.15l0.13-0.7   h3.12l-0.12,0.7l-1.02,0.16l-2.12,9.71h-1.3l-2.7-7.7l-0.31-1.53l-1.5,8.43l1.09,0.2l-0.1,0.6h-3.2L220.01,66.59z"></path>		<path class="st1" d="M233.95,66.36c0.84,0,1.65-0.34,2.42-1.01l0.27,0.57c-0.25,0.33-0.63,0.63-1.13,0.9   c-0.6,0.33-1.17,0.5-1.72,0.5s-0.99-0.09-1.32-0.26c-0.66-0.34-1.08-0.91-1.24-1.69c-0.07-0.34-0.09-0.61-0.08-0.81   c0.01-0.2,0.03-0.41,0.06-0.65c0.02-0.23,0.1-0.56,0.23-0.98c0.13-0.42,0.3-0.82,0.5-1.19c0.2-0.38,0.44-0.72,0.7-1.04   c0.27-0.32,0.56-0.59,0.87-0.82c0.67-0.49,1.38-0.73,2.11-0.73c0.96,0,1.54,0.35,1.76,1.04c0.07,0.21,0.09,0.47,0.07,0.77   c-0.02,0.3-0.13,0.6-0.31,0.89c-0.19,0.29-0.42,0.55-0.71,0.78c-0.28,0.23-0.6,0.43-0.95,0.6c-0.35,0.17-0.7,0.31-1.05,0.42   c-0.7,0.23-1.3,0.35-1.8,0.36c-0.02,0.1-0.03,0.19-0.03,0.27c-0.01,0.08-0.01,0.18-0.02,0.3c0,0.11,0.01,0.26,0.04,0.44   c0.03,0.17,0.07,0.34,0.14,0.51s0.14,0.31,0.25,0.43C233.25,66.22,233.56,66.36,233.95,66.36z M232.73,63.25   c0.68-0.03,1.35-0.24,2.03-0.62c0.49-0.27,0.84-0.59,1.07-0.98c0.12-0.2,0.19-0.45,0.21-0.75c0.02-0.3-0.04-0.53-0.19-0.69   c-0.15-0.16-0.35-0.24-0.59-0.24s-0.47,0.05-0.68,0.16c-0.21,0.11-0.39,0.25-0.57,0.43c-0.17,0.18-0.33,0.38-0.47,0.61   c-0.14,0.23-0.27,0.47-0.38,0.71C232.96,62.34,232.82,62.79,232.73,63.25z"></path>		<path class="st1" d="M240.03,60.54l-0.66-0.41l0.17-0.61l1.7-0.36l0.32,0.17l-0.26,1.57c0.39-0.68,0.96-1.19,1.7-1.53   c0.29-0.13,0.53-0.19,0.73-0.19c0.35,0,0.55,0.03,0.61,0.09l-0.41,1.44c-0.12-0.06-0.31-0.1-0.57-0.1c-0.26,0-0.48,0.03-0.67,0.08   c-0.19,0.05-0.38,0.14-0.58,0.27c-0.44,0.29-0.8,0.72-1.09,1.3l-0.98,4.95h-1.35L240.03,60.54z"></path>		<path class="st1" d="M245.93,67.32c-0.57,0-0.84-0.26-0.8-0.79c0.02-0.31,0.15-0.94,0.37-1.89l0.95-4.23l-1-0.35l0.17-0.56   l2.11-0.35l0.33,0.17l-1.44,6.58c-0.02,0.09-0.03,0.16-0.04,0.23c-0.01,0.2,0.04,0.3,0.15,0.3c0.17,0,0.43-0.15,0.77-0.46   l0.19,0.37c-0.26,0.36-0.64,0.65-1.16,0.88C246.34,67.28,246.14,67.32,245.93,67.32z M247.67,57.6c-0.12,0-0.23-0.02-0.33-0.07   c-0.31-0.14-0.45-0.38-0.42-0.73c0.02-0.28,0.15-0.52,0.39-0.73c0.23-0.2,0.43-0.3,0.61-0.3c0.18,0,0.32,0.02,0.42,0.06   c0.31,0.13,0.46,0.37,0.43,0.7c-0.02,0.28-0.15,0.53-0.38,0.75C248.18,57.49,247.93,57.6,247.67,57.6z"></path>		<path class="st1" d="M254.5,67.32c-0.55,0-0.81-0.28-0.77-0.85c0-0.03,0-0.05,0.01-0.08l0.01-0.19c-0.44,0.5-0.96,0.84-1.55,1.02   c-0.22,0.06-0.48,0.1-0.79,0.1c-0.31,0-0.6-0.07-0.88-0.22c-0.27-0.15-0.5-0.36-0.67-0.62c-0.33-0.52-0.47-1.24-0.4-2.14   c0.05-0.74,0.29-1.51,0.7-2.29c0.69-1.32,1.63-2.2,2.82-2.65c0.42-0.16,0.81-0.24,1.19-0.24c0.38,0,0.74,0.04,1.09,0.12l0.52-2.33   l-0.83-0.3l0.19-0.57l1.85-0.29l0.35,0.19l-2.17,9.92c-0.08,0.35-0.04,0.53,0.1,0.53c0.14,0,0.35-0.11,0.63-0.32l0.19,0.36   c-0.23,0.31-0.58,0.56-1.04,0.75C254.88,67.28,254.69,67.32,254.5,67.32z M255.03,60.3c-0.22-0.2-0.52-0.3-0.9-0.3   c-0.38,0-0.71,0.07-0.99,0.2c-0.28,0.13-0.53,0.31-0.76,0.53c-0.23,0.22-0.43,0.48-0.61,0.77c-0.18,0.29-0.33,0.59-0.45,0.9   c-0.24,0.62-0.39,1.25-0.44,1.9c-0.05,0.65,0.01,1.15,0.18,1.51c0.17,0.36,0.42,0.54,0.76,0.54c0.57,0,1.14-0.27,1.72-0.8   c0.16-0.15,0.29-0.29,0.4-0.43L255.03,60.3z"></path>		<path class="st1" d="M262.2,66.24c-0.65,0.72-1.38,1.08-2.19,1.08c-0.75,0-1.3-0.28-1.66-0.84c-0.33-0.52-0.47-1.24-0.4-2.14   c0.05-0.74,0.29-1.51,0.7-2.29c0.69-1.32,1.63-2.2,2.82-2.65c0.42-0.16,0.85-0.24,1.3-0.24c0.45,0,0.91,0.08,1.38,0.24l0.84-0.24   l-1.4,6.73c-0.04,0.19-0.03,0.32,0.01,0.4c0.05,0.08,0.12,0.12,0.22,0.12c0.1,0,0.29-0.11,0.56-0.32l0.19,0.37   c-0.09,0.14-0.24,0.29-0.45,0.43c-0.43,0.29-0.81,0.43-1.15,0.43c-0.58,0-0.86-0.28-0.82-0.84c0-0.03,0-0.06,0.01-0.1L262.2,66.24   z M263.43,60.22c-0.21-0.15-0.49-0.23-0.85-0.23c-0.36,0-0.68,0.06-0.96,0.19c-0.28,0.13-0.53,0.3-0.76,0.52   c-0.23,0.22-0.43,0.47-0.6,0.75c-0.18,0.28-0.33,0.58-0.45,0.89c-0.24,0.6-0.38,1.14-0.42,1.62c-0.03,0.48-0.04,0.85-0.01,1.12   c0.03,0.27,0.09,0.5,0.17,0.68c0.17,0.39,0.43,0.58,0.78,0.58c0.59,0,1.16-0.26,1.7-0.79c0.15-0.15,0.28-0.29,0.39-0.43   L263.43,60.22z"></path>		<path class="st1" d="M270.46,66.59c0.32-1.09,0.6-2.3,0.83-3.63c0.23-1.33,0.42-2.39,0.55-3.18c0.13-0.79,0.27-1.56,0.41-2.31   l-0.96-0.15l0.15-0.7h3.34l-0.13,0.7l-1.08,0.14c-0.8,4.44-1.28,7.04-1.44,7.81c-0.16,0.77-0.27,1.23-0.34,1.4   c-0.34,0.87-0.88,1.55-1.62,2.07c-0.62,0.42-1.33,0.7-2.14,0.84l-0.2-0.61c0.6-0.17,1.17-0.49,1.69-0.98   C270,67.53,270.31,67.06,270.46,66.59z"></path>		<path class="st1" d="M276.14,67.11c-1.02-0.45-1.47-1.47-1.35-3.08c0.09-1.23,0.53-2.33,1.32-3.32c0.52-0.65,1.14-1.1,1.85-1.36   c0.35-0.13,0.74-0.2,1.15-0.2c0.41,0,0.78,0.07,1.11,0.21c0.33,0.14,0.6,0.35,0.81,0.62c0.44,0.57,0.62,1.37,0.55,2.41   c-0.09,1.28-0.53,2.4-1.32,3.36c-0.53,0.65-1.14,1.1-1.86,1.37c-0.35,0.13-0.74,0.19-1.15,0.19   C276.84,67.32,276.47,67.25,276.14,67.11z M276.94,66.31c0.18,0.11,0.4,0.17,0.66,0.17s0.5-0.06,0.72-0.18   c0.22-0.12,0.43-0.29,0.61-0.5c0.18-0.21,0.35-0.45,0.49-0.73c0.4-0.78,0.63-1.66,0.7-2.63c0.09-1.19-0.15-1.95-0.72-2.29   c-0.18-0.11-0.4-0.16-0.66-0.16s-0.5,0.06-0.72,0.18c-0.22,0.12-0.43,0.29-0.61,0.5c-0.18,0.21-0.35,0.45-0.49,0.73   c-0.4,0.78-0.63,1.66-0.71,2.63C276.14,65.22,276.37,65.98,276.94,66.31z"></path>		<path class="st1" d="M281.54,69.39c0.42,0.18,0.75,0.28,0.99,0.28c0.25,0,0.47-0.03,0.66-0.1c0.2-0.07,0.4-0.18,0.62-0.34   c0.5-0.37,0.93-0.93,1.29-1.68h-0.44l-0.66-7.03c-0.03-0.14-0.06-0.24-0.09-0.3c-0.03-0.06-0.11-0.09-0.22-0.09   c-0.11,0-0.29,0.1-0.52,0.3l-0.17-0.41c0.23-0.31,0.57-0.56,1.03-0.75c0.17-0.07,0.34-0.11,0.52-0.11s0.32,0.02,0.42,0.07   c0.11,0.04,0.19,0.11,0.25,0.19c0.09,0.13,0.15,0.36,0.18,0.69l0.21,5.05l0,1.89l1.26-2.19l0.5-0.97c0.56-1.06,0.92-2.02,1.1-2.89   c0.04-0.18,0.03-0.35-0.01-0.5l-0.09-0.35c-0.02-0.08-0.03-0.15-0.02-0.23c0.02-0.26,0.1-0.45,0.23-0.57   c0.14-0.12,0.3-0.18,0.49-0.18c0.59,0,0.85,0.44,0.79,1.31c-0.07,0.92-0.52,2.07-1.35,3.45l-1.65,2.78   c-0.79,1.3-1.45,2.24-1.99,2.82c-0.38,0.49-0.93,0.83-1.65,1.03c-0.27,0.07-0.51,0.11-0.71,0.11c-0.2,0-0.36-0.01-0.46-0.02   c-0.1-0.01-0.21-0.03-0.33-0.05c-0.27-0.05-0.47-0.09-0.58-0.12L281.54,69.39z"></path>	</g>	<g>		<path class="st1" d="M173.82,44.48v4.47h-1.83v-4.51l-5.14-8.42h1.98l4.14,6.82l4.16-6.82h1.83L173.82,44.48z"></path>		<path class="st1" d="M185.25,48.24c-1.05-0.57-1.87-1.36-2.47-2.37c-0.6-1.01-0.9-2.14-0.9-3.38c0-1.24,0.3-2.37,0.9-3.38   c0.6-1.01,1.42-1.8,2.47-2.37c1.05-0.57,2.22-0.86,3.53-0.86c1.29,0,2.46,0.29,3.51,0.86c1.05,0.57,1.87,1.36,2.46,2.37   c0.59,1,0.89,2.13,0.89,3.39s-0.3,2.39-0.89,3.39c-0.59,1-1.41,1.79-2.46,2.36c-1.05,0.57-2.22,0.86-3.51,0.86   C187.48,49.1,186.3,48.81,185.25,48.24z M191.34,46.81c0.76-0.43,1.35-1.03,1.79-1.78c0.44-0.76,0.66-1.6,0.66-2.54   s-0.22-1.78-0.66-2.54c-0.44-0.76-1.03-1.35-1.79-1.78c-0.76-0.43-1.61-0.65-2.56-0.65s-1.81,0.22-2.58,0.65   c-0.77,0.43-1.37,1.03-1.81,1.78c-0.44,0.76-0.66,1.6-0.66,2.54s0.22,1.78,0.66,2.54c0.44,0.76,1.04,1.35,1.81,1.78   c0.77,0.43,1.63,0.65,2.58,0.65S190.58,47.24,191.34,46.81z"></path>		<path class="st1" d="M202.19,47.62c-0.96-0.99-1.44-2.4-1.44-4.25v-7.35h1.85v7.28c0,2.77,1.21,4.16,3.64,4.16   c1.18,0,2.09-0.34,2.72-1.03c0.63-0.68,0.94-1.73,0.94-3.13v-7.28h1.79v7.35c0,1.86-0.48,3.28-1.44,4.26   c-0.96,0.98-2.3,1.47-4.03,1.47C204.5,49.1,203.15,48.61,202.19,47.62z"></path>		<path class="st1" d="M226.62,48.95l-2.79-3.97c-0.34,0.02-0.62,0.04-0.81,0.04h-3.2v3.93h-1.85V36.02h5.04   c1.67,0,2.99,0.4,3.95,1.2c0.96,0.8,1.44,1.9,1.44,3.31c0,1-0.25,1.85-0.74,2.55s-1.19,1.21-2.11,1.53l3.07,4.34H226.62z    M225.64,42.69c0.62-0.5,0.92-1.23,0.92-2.16c0-0.94-0.31-1.65-0.92-2.15c-0.62-0.5-1.51-0.75-2.68-0.75h-3.14v5.82h3.14   C224.13,43.45,225.02,43.19,225.64,42.69z"></path>		<path class="st1" d="M240.65,48.65c-0.91-0.3-1.62-0.69-2.13-1.17l0.68-1.44c0.49,0.44,1.12,0.8,1.89,1.08   c0.77,0.28,1.56,0.42,2.37,0.42c1.07,0,1.87-0.18,2.4-0.55s0.79-0.85,0.79-1.45c0-0.44-0.14-0.8-0.43-1.08   c-0.29-0.28-0.65-0.49-1.07-0.64c-0.43-0.15-1.03-0.31-1.8-0.5c-0.97-0.23-1.76-0.47-2.36-0.7c-0.6-0.23-1.11-0.59-1.53-1.08   c-0.43-0.49-0.64-1.14-0.64-1.97c0-0.69,0.18-1.31,0.55-1.87c0.36-0.55,0.92-1,1.65-1.33c0.74-0.33,1.66-0.5,2.75-0.5   c0.76,0,1.51,0.1,2.25,0.3s1.37,0.48,1.9,0.85l-0.61,1.48c-0.54-0.34-1.12-0.61-1.74-0.79c-0.62-0.18-1.22-0.27-1.81-0.27   c-1.05,0-1.83,0.19-2.36,0.57c-0.52,0.38-0.79,0.87-0.79,1.48c0,0.44,0.15,0.8,0.44,1.08c0.3,0.28,0.66,0.49,1.1,0.65   c0.44,0.15,1.03,0.32,1.78,0.49c0.97,0.23,1.76,0.47,2.35,0.7c0.59,0.23,1.1,0.59,1.52,1.07c0.43,0.48,0.64,1.13,0.64,1.94   c0,0.68-0.18,1.3-0.55,1.86c-0.37,0.56-0.93,1-1.68,1.33c-0.75,0.33-1.67,0.49-2.77,0.49C242.49,49.1,241.55,48.95,240.65,48.65z"></path>		<path class="st1" d="M258.06,43.21l-2.36,2.4v3.34h-1.85V36.02h1.85v7.22l7.02-7.22h2.11l-5.52,5.82l5.87,7.11h-2.16L258.06,43.21   z"></path>		<path class="st1" d="M269.99,36.02h1.85v12.93h-1.85V36.02z"></path>		<path class="st1" d="M289.7,36.02v12.93h-1.51l-7.76-9.64v9.64h-1.85V36.02h1.52l7.76,9.64v-9.64H289.7z"></path>	</g></g></svg>