<svg xmlns="http://www.w3.org/2000/svg" id="Layer_1" data-name="Layer 1" viewBox="0 0 80 80"><defs><style>      .cls-1 {        fill: #333e48;        fill-rule: evenodd;      }      .cls-1, .cls-2 {        stroke-width: 0px;      }      .cls-2 {        fill: #36b0c9;      }    </style></defs><path class="cls-2" d="M40.58,6.24c19.3,0,35,15.7,35,35s-15.7,35-35,35S5.58,60.53,5.58,41.24,21.28,6.24,40.58,6.24M40.58,5.24C20.69,5.24,4.58,21.35,4.58,41.24s16.12,36,36,36,36-16.12,36-36S60.46,5.24,40.58,5.24h0Z"></path><path class="cls-1" d="M41.68,26.76v-.33c0-.9-.73-1.63-1.63-1.63-.9,0-1.63.73-1.63,1.63v.33c-.65,7.84-8.5,12.42-8.5,19.46h0c0,5.5,4.54,9.95,10.13,9.95,5.59,0,10.13-4.45,10.13-9.95,0-7.05-7.86-11.62-8.5-19.46ZM43.75,52.1c-1.72.88-3.52.8-4.03-.18s.48-2.5,2.2-3.38c1.72-.88,3.52-.8,4.03.18.51.98-.48,2.5-2.2,3.38Z"></path></svg>