<svg xmlns="http://www.w3.org/2000/svg" id="Layer_1" data-name="Layer 1" viewBox="0 0 80 80"><defs><style>      .cls-1 {        fill-rule: evenodd;      }      .cls-1, .cls-2, .cls-3 {        stroke-width: 0px;      }      .cls-1, .cls-3 {        fill: #333e48;      }      .cls-2 {        fill: #36b0c9;      }    </style></defs><path class="cls-2" d="M40.37,6.24c19.3,0,35,15.7,35,35s-15.7,35-35,35S5.37,60.53,5.37,41.24,21.07,6.24,40.37,6.24M40.37,5.24C20.49,5.24,4.37,21.35,4.37,41.24s16.12,36,36,36,36-16.12,36-36S60.25,5.24,40.37,5.24h0Z"></path><circle class="cls-3" cx="48.36" cy="32.46" r="1.48"></circle><circle class="cls-3" cx="58.02" cy="31.38" r="1.48"></circle><circle class="cls-3" cx="53.47" cy="39.58" r="1.48"></circle><circle class="cls-3" cx="57.65" cy="45.69" r="1.48"></circle><circle class="cls-3" cx="54.93" cy="53.84" r="1.48"></circle><circle class="cls-3" cx="49.13" cy="48.65" r="1.48"></circle><circle class="cls-3" cx="46.91" cy="58.15" r="1.48"></circle><circle class="cls-3" cx="41.23" cy="52.48" r="1.48"></circle><path class="cls-1" d="M33.23,21.96v-.27c0-.75-.61-1.36-1.36-1.36-.75,0-1.36.61-1.36,1.36v.27c-.54,6.51-7.05,10.3-7.05,16.15h0c0,4.56,3.76,8.25,8.4,8.25,4.64,0,8.4-3.69,8.4-8.25,0-5.85-6.52-9.64-7.05-16.15ZM34.95,42.98c-1.43.73-2.92.67-3.34-.15s.4-2.07,1.82-2.8c1.43-.73,2.92-.67,3.34.15.42.81-.4,2.07-1.82,2.8Z"></path></svg>